<!-- Generated by IcoMoon.io -->
<svg version="1.1" xmlns="http://www.w3.org/2000/svg" width="512" height="512" viewBox="0 0 512 512">
<g id="icomoon-ignore">
</g>
<path fill="white" d="M256 111.666c47.033 0 52.605 0.207 71.101 1.032 17.191 0.757 26.474 3.644 32.661 6.053 8.182 3.164 14.096 7.016 20.216 13.133 6.191 6.191 9.97 12.034 13.204 20.216 2.407 6.191 5.295 15.541 6.053 32.661 0.825 18.566 1.032 24.137 1.032 71.101s-0.207 52.604-1.032 71.101c-0.757 17.191-3.644 26.474-6.053 32.661-3.164 8.182-7.016 14.096-13.134 20.216-6.191 6.191-12.034 9.97-20.216 13.204-6.191 2.407-15.541 5.295-32.661 6.053-18.566 0.825-24.137 1.032-71.101 1.032s-52.605-0.207-71.101-1.032c-17.191-0.757-26.474-3.644-32.661-6.053-8.182-3.164-14.096-7.016-20.216-13.134-6.191-6.191-9.97-12.034-13.204-20.216-2.407-6.191-5.294-15.541-6.053-32.661-0.826-18.566-1.032-24.137-1.032-71.101s0.207-52.605 1.032-71.101c0.757-17.191 3.644-26.474 6.053-32.661 3.164-8.182 7.016-14.096 13.134-20.216 6.191-6.191 12.034-9.97 20.216-13.204 6.191-2.407 15.541-5.294 32.661-6.053 18.499-0.826 24.066-1.032 71.101-1.032zM256 79.963c-47.792 0-53.773 0.207-72.546 1.032-18.703 0.826-31.561 3.852-42.702 8.182-11.62 4.54-21.453 10.52-31.219 20.353-9.832 9.766-15.816 19.6-20.353 31.149-4.332 11.208-7.357 23.999-8.182 42.702-0.826 18.841-1.032 24.824-1.032 72.613s0.207 53.773 1.032 72.546c0.826 18.704 3.852 31.562 8.182 42.702 4.54 11.62 10.52 21.454 20.353 31.219 9.766 9.766 19.6 15.816 31.149 20.288 11.208 4.332 23.999 7.357 42.702 8.182 18.774 0.825 24.755 1.032 72.546 1.032s53.773-0.207 72.546-1.032c18.704-0.825 31.562-3.851 42.702-8.182 11.553-4.469 21.387-10.52 31.149-20.288s15.816-19.6 20.288-31.149c4.332-11.208 7.357-23.999 8.182-42.702 0.825-18.774 1.032-24.755 1.032-72.546s-0.207-53.773-1.032-72.546c-0.825-18.703-3.851-31.561-8.182-42.702-4.332-11.691-10.316-21.525-20.15-31.287-9.766-9.766-19.6-15.816-31.149-20.288-11.208-4.332-23.999-7.357-42.702-8.182-18.841-0.894-24.824-1.1-72.613-1.1v0z"></path>
<path fill="white" d="M256 165.577c-49.921 0-90.423 40.501-90.423 90.423s40.501 90.423 90.423 90.423 90.423-40.502 90.423-90.423c0-49.921-40.502-90.423-90.423-90.423zM256 314.654c-32.387 0-58.654-26.267-58.654-58.654s26.267-58.654 58.654-58.654c32.387 0 58.654 26.267 58.654 58.654s-26.267 58.654-58.654 58.654z"></path>
<path fill="white" d="M371.111 162c0 11.658-9.452 21.113-21.113 21.113s-21.113-9.452-21.113-21.113c0-11.658 9.452-21.113 21.113-21.113s21.113 9.452 21.113 21.113z"></path>
</svg>