<!-- Generated by IcoMoon.io -->
<svg version="1.1" xmlns="http://www.w3.org/2000/svg" width="512" height="512" viewBox="0 0 512 512">
<title></title>
<g id="icomoon-ignore">
</g>
<path fill="white" d="M433.23 157.138c-13.016 5.816-27.070 9.692-41.746 11.423 15.023-9 26.516-23.262 31.984-40.223-14.054 8.308-29.63 14.4-46.176 17.654-13.292-14.123-32.192-22.916-53.1-22.916-40.154 0-72.692 32.538-72.692 72.692 0 5.677 0.623 11.216 1.869 16.546-60.438-3.046-114.023-31.984-149.884-76.016-6.23 10.73-9.83 23.262-9.83 36.554 0 25.2 12.808 47.492 32.33 60.508-11.908-0.346-23.123-3.669-32.954-9.070 0 0.276 0 0.623 0 0.9 0 35.238 25.062 64.662 58.362 71.308-6.092 1.662-12.53 2.562-19.177 2.562-4.708 0-9.208-0.484-13.708-1.316 9.276 28.87 36.138 49.916 67.916 50.538-24.923 19.523-56.216 31.154-90.346 31.154-5.884 0-11.63-0.346-17.376-1.038 32.262 20.7 70.476 32.676 111.53 32.676 133.754 0 206.93-110.838 206.93-206.93 0-3.184-0.070-6.3-0.208-9.416 14.192-10.177 26.516-22.984 36.276-37.592z"></path>
</svg>
